<mxfile host="Electron" agent="Mozilla/5.0 (Windows NT 10.0; Win64; x64) AppleWebKit/537.36 (KHTML, like Gecko) draw.io/26.0.16 Chrome/132.0.6834.196 Electron/34.2.0 Safari/537.36" version="26.0.16">
  <diagram id="prtHgNgQTEPvFCAcTncT" name="Page-1">
    <mxGraphModel dx="3174" dy="1244" grid="1" gridSize="10" guides="1" tooltips="1" connect="1" arrows="1" fold="1" page="1" pageScale="1" pageWidth="1100" pageHeight="850" math="0" shadow="0">
      <root>
        <mxCell id="0" />
        <mxCell id="1" parent="0" />
        <mxCell id="OWpKUqLsW3lBwRPTN_-N-1" value="" style="rounded=0;whiteSpace=wrap;html=1;fillColor=light-dark(#ffffff, #392f3f);strokeColor=#000000;" parent="1" vertex="1">
          <mxGeometry x="10" y="10" width="2070" height="160" as="geometry" />
        </mxCell>
        <mxCell id="OWpKUqLsW3lBwRPTN_-N-2" value="" style="rounded=0;whiteSpace=wrap;html=1;fillColor=light-dark(#ffffff, #392f3f);strokeColor=#000000;" parent="1" vertex="1">
          <mxGeometry x="10" y="170" width="2070" height="160" as="geometry" />
        </mxCell>
        <mxCell id="OWpKUqLsW3lBwRPTN_-N-3" value="" style="rounded=0;whiteSpace=wrap;html=1;fillColor=light-dark(#ffffff, #392f3f);strokeColor=#000000;" parent="1" vertex="1">
          <mxGeometry x="10" y="330" width="2070" height="160" as="geometry" />
        </mxCell>
        <mxCell id="OWpKUqLsW3lBwRPTN_-N-4" value="" style="rounded=0;whiteSpace=wrap;html=1;fillColor=light-dark(#ffffff, #392f3f);strokeColor=#000000;" parent="1" vertex="1">
          <mxGeometry x="11" y="490" width="2070" height="160" as="geometry" />
        </mxCell>
        <mxCell id="OWpKUqLsW3lBwRPTN_-N-5" value="" style="rounded=0;whiteSpace=wrap;html=1;fillColor=light-dark(#ffffff, #392f3f);strokeColor=#000000;" parent="1" vertex="1">
          <mxGeometry x="11" y="650" width="2069" height="160" as="geometry" />
        </mxCell>
        <mxCell id="OWpKUqLsW3lBwRPTN_-N-89" value="" style="edgeStyle=orthogonalEdgeStyle;rounded=0;orthogonalLoop=1;jettySize=auto;html=1;" parent="1" source="OWpKUqLsW3lBwRPTN_-N-6" target="OWpKUqLsW3lBwRPTN_-N-7" edge="1">
          <mxGeometry relative="1" as="geometry" />
        </mxCell>
        <mxCell id="OWpKUqLsW3lBwRPTN_-N-6" value="&lt;font style=&quot;font-size: 14px;&quot;&gt;Submits financial package&lt;/font&gt;" style="strokeWidth=2;html=1;shape=mxgraph.flowchart.terminator;whiteSpace=wrap;" parent="1" vertex="1">
          <mxGeometry x="20" y="55" width="140" height="70" as="geometry" />
        </mxCell>
        <mxCell id="OWpKUqLsW3lBwRPTN_-N-29" value="" style="edgeStyle=orthogonalEdgeStyle;rounded=0;orthogonalLoop=1;jettySize=auto;html=1;" parent="1" source="OWpKUqLsW3lBwRPTN_-N-7" target="OWpKUqLsW3lBwRPTN_-N-9" edge="1">
          <mxGeometry relative="1" as="geometry" />
        </mxCell>
        <mxCell id="OWpKUqLsW3lBwRPTN_-N-7" value="&lt;font style=&quot;font-size: 14px;&quot;&gt;Review and enters covenants and financial info into System&lt;/font&gt;" style="rounded=0;whiteSpace=wrap;html=1;strokeWidth=2;" parent="1" vertex="1">
          <mxGeometry x="25" y="210" width="130" height="70" as="geometry" />
        </mxCell>
        <mxCell id="OWpKUqLsW3lBwRPTN_-N-30" value="" style="edgeStyle=orthogonalEdgeStyle;rounded=0;orthogonalLoop=1;jettySize=auto;html=1;" parent="1" source="OWpKUqLsW3lBwRPTN_-N-9" target="OWpKUqLsW3lBwRPTN_-N-11" edge="1">
          <mxGeometry relative="1" as="geometry" />
        </mxCell>
        <mxCell id="OWpKUqLsW3lBwRPTN_-N-39" value="&lt;font style=&quot;font-size: 14px;&quot;&gt;No&lt;/font&gt;" style="edgeLabel;html=1;align=center;verticalAlign=middle;resizable=0;points=[];" parent="OWpKUqLsW3lBwRPTN_-N-30" vertex="1" connectable="0">
          <mxGeometry x="-0.1785" y="4" relative="1" as="geometry">
            <mxPoint x="-3" as="offset" />
          </mxGeometry>
        </mxCell>
        <mxCell id="OWpKUqLsW3lBwRPTN_-N-9" value="&lt;font style=&quot;font-size: 14px;&quot;&gt;Issues&amp;nbsp;&lt;/font&gt;&lt;div&gt;&lt;font style=&quot;font-size: 14px;&quot;&gt;Noted?&lt;/font&gt;&lt;/div&gt;" style="strokeWidth=2;html=1;shape=mxgraph.flowchart.decision;whiteSpace=wrap;" parent="1" vertex="1">
          <mxGeometry x="180" y="205" width="115" height="80" as="geometry" />
        </mxCell>
        <mxCell id="OWpKUqLsW3lBwRPTN_-N-32" value="" style="edgeStyle=orthogonalEdgeStyle;rounded=0;orthogonalLoop=1;jettySize=auto;html=1;" parent="1" source="OWpKUqLsW3lBwRPTN_-N-11" target="OWpKUqLsW3lBwRPTN_-N-12" edge="1">
          <mxGeometry relative="1" as="geometry" />
        </mxCell>
        <mxCell id="OWpKUqLsW3lBwRPTN_-N-11" value="&lt;font style=&quot;font-size: 14px;&quot;&gt;Views in Dashboard During Standard Procedures&lt;/font&gt;" style="rounded=0;whiteSpace=wrap;html=1;strokeWidth=2;" parent="1" vertex="1">
          <mxGeometry x="172" y="360" width="130" height="70" as="geometry" />
        </mxCell>
        <mxCell id="OWpKUqLsW3lBwRPTN_-N-33" value="" style="edgeStyle=orthogonalEdgeStyle;rounded=0;orthogonalLoop=1;jettySize=auto;html=1;" parent="1" source="OWpKUqLsW3lBwRPTN_-N-12" target="OWpKUqLsW3lBwRPTN_-N-13" edge="1">
          <mxGeometry relative="1" as="geometry" />
        </mxCell>
        <mxCell id="OWpKUqLsW3lBwRPTN_-N-43" value="&lt;font style=&quot;font-size: 16px;&quot;&gt;No&lt;/font&gt;" style="edgeLabel;html=1;align=center;verticalAlign=middle;resizable=0;points=[];" parent="OWpKUqLsW3lBwRPTN_-N-33" vertex="1" connectable="0">
          <mxGeometry x="-0.4762" relative="1" as="geometry">
            <mxPoint x="7" y="-1" as="offset" />
          </mxGeometry>
        </mxCell>
        <mxCell id="OWpKUqLsW3lBwRPTN_-N-12" value="&lt;font style=&quot;font-size: 14px;&quot;&gt;Issues&amp;nbsp;&lt;/font&gt;&lt;div&gt;&lt;font style=&quot;font-size: 14px;&quot;&gt;Noted?&lt;/font&gt;&lt;/div&gt;" style="strokeWidth=2;html=1;shape=mxgraph.flowchart.decision;whiteSpace=wrap;" parent="1" vertex="1">
          <mxGeometry x="328" y="355" width="115" height="80" as="geometry" />
        </mxCell>
        <mxCell id="OWpKUqLsW3lBwRPTN_-N-34" value="" style="edgeStyle=orthogonalEdgeStyle;rounded=0;orthogonalLoop=1;jettySize=auto;html=1;jumpStyle=arc;" parent="1" source="OWpKUqLsW3lBwRPTN_-N-13" target="OWpKUqLsW3lBwRPTN_-N-15" edge="1">
          <mxGeometry relative="1" as="geometry" />
        </mxCell>
        <mxCell id="OWpKUqLsW3lBwRPTN_-N-13" value="&lt;font style=&quot;font-size: 14px;&quot;&gt;Writes Commentary and Analysis&lt;/font&gt;" style="rounded=0;whiteSpace=wrap;html=1;strokeWidth=2;" parent="1" vertex="1">
          <mxGeometry x="484" y="360" width="130" height="70" as="geometry" />
        </mxCell>
        <mxCell id="OWpKUqLsW3lBwRPTN_-N-45" value="" style="edgeStyle=orthogonalEdgeStyle;rounded=0;orthogonalLoop=1;jettySize=auto;html=1;" parent="1" source="OWpKUqLsW3lBwRPTN_-N-14" target="OWpKUqLsW3lBwRPTN_-N-37" edge="1">
          <mxGeometry relative="1" as="geometry" />
        </mxCell>
        <mxCell id="OWpKUqLsW3lBwRPTN_-N-14" value="&lt;span style=&quot;font-size: 14px;&quot;&gt;Review Potential Issues&lt;/span&gt;" style="rounded=0;whiteSpace=wrap;html=1;strokeWidth=2;" parent="1" vertex="1">
          <mxGeometry x="784" y="360" width="130" height="70" as="geometry" />
        </mxCell>
        <mxCell id="OWpKUqLsW3lBwRPTN_-N-35" value="" style="edgeStyle=orthogonalEdgeStyle;rounded=0;orthogonalLoop=1;jettySize=auto;html=1;" parent="1" source="OWpKUqLsW3lBwRPTN_-N-15" target="OWpKUqLsW3lBwRPTN_-N-16" edge="1">
          <mxGeometry relative="1" as="geometry" />
        </mxCell>
        <mxCell id="OWpKUqLsW3lBwRPTN_-N-15" value="&lt;font style=&quot;font-size: 14px;&quot;&gt;Reviews Commentary and Analysis&lt;/font&gt;" style="rounded=0;whiteSpace=wrap;html=1;strokeWidth=2;" parent="1" vertex="1">
          <mxGeometry x="484" y="530" width="130" height="70" as="geometry" />
        </mxCell>
        <mxCell id="OWpKUqLsW3lBwRPTN_-N-36" value="" style="edgeStyle=orthogonalEdgeStyle;rounded=0;orthogonalLoop=1;jettySize=auto;html=1;" parent="1" source="OWpKUqLsW3lBwRPTN_-N-16" target="OWpKUqLsW3lBwRPTN_-N-17" edge="1">
          <mxGeometry relative="1" as="geometry" />
        </mxCell>
        <mxCell id="OWpKUqLsW3lBwRPTN_-N-48" value="&lt;font style=&quot;font-size: 15px;&quot;&gt;No&lt;/font&gt;" style="edgeLabel;html=1;align=center;verticalAlign=middle;resizable=0;points=[];" parent="OWpKUqLsW3lBwRPTN_-N-36" vertex="1" connectable="0">
          <mxGeometry x="-0.2952" relative="1" as="geometry">
            <mxPoint x="3" as="offset" />
          </mxGeometry>
        </mxCell>
        <mxCell id="OWpKUqLsW3lBwRPTN_-N-16" value="&lt;font style=&quot;font-size: 14px;&quot;&gt;Issues&lt;/font&gt;&lt;div&gt;&lt;font style=&quot;font-size: 14px;&quot;&gt;Noted?&lt;/font&gt;&lt;/div&gt;" style="strokeWidth=2;html=1;shape=mxgraph.flowchart.decision;whiteSpace=wrap;" parent="1" vertex="1">
          <mxGeometry x="637" y="525" width="115" height="80" as="geometry" />
        </mxCell>
        <mxCell id="OWpKUqLsW3lBwRPTN_-N-17" value="&lt;span style=&quot;font-size: 14px;&quot;&gt;Compliance Process Finalized&lt;/span&gt;" style="strokeWidth=2;html=1;shape=mxgraph.flowchart.terminator;whiteSpace=wrap;" parent="1" vertex="1">
          <mxGeometry x="796" y="530" width="140" height="70" as="geometry" />
        </mxCell>
        <mxCell id="OWpKUqLsW3lBwRPTN_-N-52" value="" style="edgeStyle=orthogonalEdgeStyle;rounded=0;orthogonalLoop=1;jettySize=auto;html=1;" parent="1" source="OWpKUqLsW3lBwRPTN_-N-18" target="OWpKUqLsW3lBwRPTN_-N-19" edge="1">
          <mxGeometry relative="1" as="geometry" />
        </mxCell>
        <mxCell id="OWpKUqLsW3lBwRPTN_-N-18" value="&lt;span style=&quot;font-size: 14px;&quot;&gt;Review Potential Issues&lt;/span&gt;" style="rounded=0;whiteSpace=wrap;html=1;strokeWidth=2;" parent="1" vertex="1">
          <mxGeometry x="1015" y="535" width="130" height="70" as="geometry" />
        </mxCell>
        <mxCell id="OWpKUqLsW3lBwRPTN_-N-53" value="" style="edgeStyle=orthogonalEdgeStyle;rounded=0;orthogonalLoop=1;jettySize=auto;html=1;" parent="1" source="OWpKUqLsW3lBwRPTN_-N-19" target="OWpKUqLsW3lBwRPTN_-N-38" edge="1">
          <mxGeometry relative="1" as="geometry" />
        </mxCell>
        <mxCell id="OWpKUqLsW3lBwRPTN_-N-54" value="&lt;font style=&quot;font-size: 15px;&quot;&gt;No&lt;/font&gt;" style="edgeLabel;html=1;align=center;verticalAlign=middle;resizable=0;points=[];" parent="OWpKUqLsW3lBwRPTN_-N-53" vertex="1" connectable="0">
          <mxGeometry x="-0.1788" y="-1" relative="1" as="geometry">
            <mxPoint as="offset" />
          </mxGeometry>
        </mxCell>
        <mxCell id="OWpKUqLsW3lBwRPTN_-N-55" value="" style="edgeStyle=orthogonalEdgeStyle;rounded=0;orthogonalLoop=1;jettySize=auto;html=1;" parent="1" source="OWpKUqLsW3lBwRPTN_-N-19" target="OWpKUqLsW3lBwRPTN_-N-20" edge="1">
          <mxGeometry relative="1" as="geometry" />
        </mxCell>
        <mxCell id="OWpKUqLsW3lBwRPTN_-N-56" value="&lt;font style=&quot;font-size: 15px;&quot;&gt;Yes&lt;/font&gt;" style="edgeLabel;html=1;align=center;verticalAlign=middle;resizable=0;points=[];" parent="OWpKUqLsW3lBwRPTN_-N-55" vertex="1" connectable="0">
          <mxGeometry x="-0.532" y="3" relative="1" as="geometry">
            <mxPoint as="offset" />
          </mxGeometry>
        </mxCell>
        <mxCell id="OWpKUqLsW3lBwRPTN_-N-19" value="&lt;font style=&quot;font-size: 14px;&quot;&gt;Action&lt;/font&gt;&lt;div&gt;&lt;font style=&quot;font-size: 14px;&quot;&gt;Required?&lt;/font&gt;&lt;/div&gt;" style="strokeWidth=2;html=1;shape=mxgraph.flowchart.decision;whiteSpace=wrap;" parent="1" vertex="1">
          <mxGeometry x="1174" y="530" width="115" height="80" as="geometry" />
        </mxCell>
        <mxCell id="OWpKUqLsW3lBwRPTN_-N-57" value="" style="edgeStyle=orthogonalEdgeStyle;rounded=0;orthogonalLoop=1;jettySize=auto;html=1;entryX=0;entryY=0.5;entryDx=0;entryDy=0;" parent="1" source="OWpKUqLsW3lBwRPTN_-N-20" target="OWpKUqLsW3lBwRPTN_-N-23" edge="1">
          <mxGeometry relative="1" as="geometry">
            <mxPoint x="1328" y="725" as="targetPoint" />
          </mxGeometry>
        </mxCell>
        <mxCell id="OWpKUqLsW3lBwRPTN_-N-20" value="&lt;font style=&quot;font-size: 14px;&quot;&gt;Reviews Issues&lt;/font&gt;" style="rounded=0;whiteSpace=wrap;html=1;strokeWidth=2;" parent="1" vertex="1">
          <mxGeometry x="1166.5" y="690" width="130" height="70" as="geometry" />
        </mxCell>
        <mxCell id="OWpKUqLsW3lBwRPTN_-N-23" value="&lt;font style=&quot;font-size: 14px;&quot;&gt;Formulates&amp;nbsp;&lt;/font&gt;&lt;div&gt;&lt;font style=&quot;font-size: 14px;&quot;&gt;Solution&lt;/font&gt;&lt;/div&gt;" style="rounded=0;whiteSpace=wrap;html=1;strokeWidth=2;" parent="1" vertex="1">
          <mxGeometry x="1434" y="690" width="130" height="70" as="geometry" />
        </mxCell>
        <mxCell id="OWpKUqLsW3lBwRPTN_-N-24" value="&lt;font style=&quot;font-size: 14px;&quot;&gt;Drafts Amendment or Remedy&lt;/font&gt;" style="rounded=0;whiteSpace=wrap;html=1;strokeWidth=2;" parent="1" vertex="1">
          <mxGeometry x="1737" y="690" width="130" height="70" as="geometry" />
        </mxCell>
        <mxCell id="OWpKUqLsW3lBwRPTN_-N-88" value="" style="edgeStyle=orthogonalEdgeStyle;rounded=0;orthogonalLoop=1;jettySize=auto;html=1;" parent="1" source="OWpKUqLsW3lBwRPTN_-N-25" target="OWpKUqLsW3lBwRPTN_-N-26" edge="1">
          <mxGeometry relative="1" as="geometry" />
        </mxCell>
        <mxCell id="OWpKUqLsW3lBwRPTN_-N-25" value="&lt;font style=&quot;font-size: 14px;&quot;&gt;Reviews Amendment or Remedy&lt;/font&gt;" style="rounded=0;whiteSpace=wrap;html=1;strokeWidth=2;" parent="1" vertex="1">
          <mxGeometry x="1737" y="50" width="130" height="70" as="geometry" />
        </mxCell>
        <mxCell id="OWpKUqLsW3lBwRPTN_-N-26" value="&lt;span style=&quot;font-size: 14px;&quot;&gt;Agrees?&lt;/span&gt;" style="strokeWidth=2;html=1;shape=mxgraph.flowchart.decision;whiteSpace=wrap;" parent="1" vertex="1">
          <mxGeometry x="1900" y="44" width="115" height="80" as="geometry" />
        </mxCell>
        <mxCell id="OWpKUqLsW3lBwRPTN_-N-37" value="&lt;span style=&quot;font-size: 14px;&quot;&gt;Issue&amp;nbsp;&lt;/span&gt;&lt;div&gt;&lt;span style=&quot;font-size: 14px;&quot;&gt;Cleared?&lt;/span&gt;&lt;/div&gt;" style="strokeWidth=2;html=1;shape=mxgraph.flowchart.decision;whiteSpace=wrap;" parent="1" vertex="1">
          <mxGeometry x="932.5" y="355" width="115" height="80" as="geometry" />
        </mxCell>
        <mxCell id="OWpKUqLsW3lBwRPTN_-N-38" value="&lt;span style=&quot;font-size: 14px;&quot;&gt;Compliance Process Finalized&lt;/span&gt;" style="strokeWidth=2;html=1;shape=mxgraph.flowchart.terminator;whiteSpace=wrap;" parent="1" vertex="1">
          <mxGeometry x="1328" y="535" width="140" height="70" as="geometry" />
        </mxCell>
        <mxCell id="OWpKUqLsW3lBwRPTN_-N-40" value="" style="endArrow=classic;html=1;rounded=0;entryX=0.5;entryY=0;entryDx=0;entryDy=0;exitX=1;exitY=0.5;exitDx=0;exitDy=0;exitPerimeter=0;edgeStyle=orthogonalEdgeStyle;" parent="1" source="OWpKUqLsW3lBwRPTN_-N-9" target="OWpKUqLsW3lBwRPTN_-N-14" edge="1">
          <mxGeometry width="50" height="50" relative="1" as="geometry">
            <mxPoint x="270" y="270" as="sourcePoint" />
            <mxPoint x="320" y="220" as="targetPoint" />
          </mxGeometry>
        </mxCell>
        <mxCell id="OWpKUqLsW3lBwRPTN_-N-41" value="&lt;font style=&quot;font-size: 14px;&quot;&gt;Yes&lt;/font&gt;" style="edgeLabel;html=1;align=center;verticalAlign=middle;resizable=0;points=[];" parent="OWpKUqLsW3lBwRPTN_-N-40" vertex="1" connectable="0">
          <mxGeometry x="-0.1709" y="-4" relative="1" as="geometry">
            <mxPoint x="-252" y="-4" as="offset" />
          </mxGeometry>
        </mxCell>
        <mxCell id="OWpKUqLsW3lBwRPTN_-N-46" value="" style="endArrow=classic;html=1;rounded=0;exitX=0.5;exitY=1;exitDx=0;exitDy=0;exitPerimeter=0;entryX=0.5;entryY=1;entryDx=0;entryDy=0;edgeStyle=orthogonalEdgeStyle;jumpStyle=arc;" parent="1" source="OWpKUqLsW3lBwRPTN_-N-37" target="OWpKUqLsW3lBwRPTN_-N-11" edge="1">
          <mxGeometry width="50" height="50" relative="1" as="geometry">
            <mxPoint x="310" y="600" as="sourcePoint" />
            <mxPoint x="360" y="550" as="targetPoint" />
            <Array as="points">
              <mxPoint x="990" y="435" />
              <mxPoint x="990" y="460" />
              <mxPoint x="237" y="460" />
            </Array>
          </mxGeometry>
        </mxCell>
        <mxCell id="OWpKUqLsW3lBwRPTN_-N-86" value="&lt;font style=&quot;font-size: 15px;&quot;&gt;Yes&lt;/font&gt;" style="edgeLabel;html=1;align=center;verticalAlign=middle;resizable=0;points=[];" parent="OWpKUqLsW3lBwRPTN_-N-46" vertex="1" connectable="0">
          <mxGeometry x="-0.9653" y="1" relative="1" as="geometry">
            <mxPoint as="offset" />
          </mxGeometry>
        </mxCell>
        <mxCell id="OWpKUqLsW3lBwRPTN_-N-68" value="" style="edgeStyle=orthogonalEdgeStyle;rounded=0;orthogonalLoop=1;jettySize=auto;html=1;" parent="1" source="OWpKUqLsW3lBwRPTN_-N-59" target="OWpKUqLsW3lBwRPTN_-N-64" edge="1">
          <mxGeometry relative="1" as="geometry" />
        </mxCell>
        <mxCell id="OWpKUqLsW3lBwRPTN_-N-59" value="&lt;font style=&quot;font-size: 14px;&quot;&gt;Reviews&lt;/font&gt;&lt;div&gt;&lt;font style=&quot;font-size: 14px;&quot;&gt;Solution&lt;/font&gt;&lt;/div&gt;" style="rounded=0;whiteSpace=wrap;html=1;strokeWidth=2;" parent="1" vertex="1">
          <mxGeometry x="1499" y="535" width="130" height="70" as="geometry" />
        </mxCell>
        <mxCell id="OWpKUqLsW3lBwRPTN_-N-64" value="&lt;span style=&quot;font-size: 14px;&quot;&gt;Approves?&lt;/span&gt;" style="strokeWidth=2;html=1;shape=mxgraph.flowchart.decision;whiteSpace=wrap;" parent="1" vertex="1">
          <mxGeometry x="1660" y="530" width="115" height="80" as="geometry" />
        </mxCell>
        <mxCell id="OWpKUqLsW3lBwRPTN_-N-67" value="" style="endArrow=classic;html=1;rounded=0;entryX=0.25;entryY=1;entryDx=0;entryDy=0;exitX=0.75;exitY=0;exitDx=0;exitDy=0;" parent="1" source="OWpKUqLsW3lBwRPTN_-N-23" target="OWpKUqLsW3lBwRPTN_-N-59" edge="1">
          <mxGeometry width="50" height="50" relative="1" as="geometry">
            <mxPoint x="1532" y="690" as="sourcePoint" />
            <mxPoint x="1550" y="630" as="targetPoint" />
          </mxGeometry>
        </mxCell>
        <mxCell id="OWpKUqLsW3lBwRPTN_-N-73" value="" style="endArrow=classic;html=1;rounded=0;exitX=1;exitY=0.5;exitDx=0;exitDy=0;exitPerimeter=0;entryX=0.5;entryY=0;entryDx=0;entryDy=0;" parent="1" source="OWpKUqLsW3lBwRPTN_-N-64" target="OWpKUqLsW3lBwRPTN_-N-24" edge="1">
          <mxGeometry width="50" height="50" relative="1" as="geometry">
            <mxPoint x="1410" y="440" as="sourcePoint" />
            <mxPoint x="1460" y="390" as="targetPoint" />
            <Array as="points">
              <mxPoint x="1800" y="570" />
            </Array>
          </mxGeometry>
        </mxCell>
        <mxCell id="OWpKUqLsW3lBwRPTN_-N-74" value="&lt;font style=&quot;font-size: 15px;&quot;&gt;Yes&lt;/font&gt;" style="edgeLabel;html=1;align=center;verticalAlign=middle;resizable=0;points=[];" parent="OWpKUqLsW3lBwRPTN_-N-73" vertex="1" connectable="0">
          <mxGeometry x="0.1696" relative="1" as="geometry">
            <mxPoint as="offset" />
          </mxGeometry>
        </mxCell>
        <mxCell id="OWpKUqLsW3lBwRPTN_-N-75" value="" style="endArrow=classic;html=1;rounded=0;exitX=0.5;exitY=1;exitDx=0;exitDy=0;exitPerimeter=0;entryX=0.75;entryY=1;entryDx=0;entryDy=0;" parent="1" source="OWpKUqLsW3lBwRPTN_-N-64" target="OWpKUqLsW3lBwRPTN_-N-23" edge="1">
          <mxGeometry width="50" height="50" relative="1" as="geometry">
            <mxPoint x="1410" y="440" as="sourcePoint" />
            <mxPoint x="1460" y="390" as="targetPoint" />
            <Array as="points">
              <mxPoint x="1718" y="790" />
              <mxPoint x="1532" y="790" />
            </Array>
          </mxGeometry>
        </mxCell>
        <mxCell id="OWpKUqLsW3lBwRPTN_-N-76" value="&lt;font style=&quot;font-size: 15px;&quot;&gt;No&lt;/font&gt;" style="edgeLabel;html=1;align=center;verticalAlign=middle;resizable=0;points=[];" parent="OWpKUqLsW3lBwRPTN_-N-75" vertex="1" connectable="0">
          <mxGeometry x="-0.9003" y="-1" relative="1" as="geometry">
            <mxPoint as="offset" />
          </mxGeometry>
        </mxCell>
        <mxCell id="OWpKUqLsW3lBwRPTN_-N-77" value="" style="endArrow=classic;html=1;rounded=0;exitX=1;exitY=0.5;exitDx=0;exitDy=0;entryX=0.5;entryY=1;entryDx=0;entryDy=0;exitPerimeter=0;" parent="1" source="rYMgPqw9z5oWbUVc-z0b-1" target="OWpKUqLsW3lBwRPTN_-N-25" edge="1">
          <mxGeometry width="50" height="50" relative="1" as="geometry">
            <mxPoint x="1880" y="720" as="sourcePoint" />
            <mxPoint x="1930" y="670" as="targetPoint" />
            <Array as="points">
              <mxPoint x="2020" y="420" />
              <mxPoint x="1800" y="420" />
              <mxPoint x="1802" y="150" />
            </Array>
          </mxGeometry>
        </mxCell>
        <mxCell id="rYMgPqw9z5oWbUVc-z0b-2" value="&lt;font style=&quot;font-size: 15px;&quot;&gt;No&lt;/font&gt;" style="edgeLabel;html=1;align=center;verticalAlign=middle;resizable=0;points=[];" parent="OWpKUqLsW3lBwRPTN_-N-77" vertex="1" connectable="0">
          <mxGeometry x="-0.7051" y="-3" relative="1" as="geometry">
            <mxPoint as="offset" />
          </mxGeometry>
        </mxCell>
        <mxCell id="OWpKUqLsW3lBwRPTN_-N-78" value="" style="endArrow=classic;html=1;rounded=0;exitX=0.503;exitY=0.981;exitDx=0;exitDy=0;exitPerimeter=0;entryX=0.5;entryY=0;entryDx=0;entryDy=0;entryPerimeter=0;" parent="1" source="OWpKUqLsW3lBwRPTN_-N-26" target="OWpKUqLsW3lBwRPTN_-N-82" edge="1">
          <mxGeometry width="50" height="50" relative="1" as="geometry">
            <mxPoint x="1957.5" y="130" as="sourcePoint" />
            <mxPoint x="1980" y="221" as="targetPoint" />
            <Array as="points">
              <mxPoint x="1958" y="160" />
            </Array>
          </mxGeometry>
        </mxCell>
        <mxCell id="OWpKUqLsW3lBwRPTN_-N-79" value="&lt;font style=&quot;font-size: 15px;&quot;&gt;Yes&lt;/font&gt;" style="edgeLabel;html=1;align=center;verticalAlign=middle;resizable=0;points=[];" parent="OWpKUqLsW3lBwRPTN_-N-78" vertex="1" connectable="0">
          <mxGeometry x="-0.7973" relative="1" as="geometry">
            <mxPoint y="4" as="offset" />
          </mxGeometry>
        </mxCell>
        <mxCell id="OWpKUqLsW3lBwRPTN_-N-80" value="" style="endArrow=classic;html=1;rounded=0;exitX=1;exitY=0.5;exitDx=0;exitDy=0;exitPerimeter=0;entryX=0.25;entryY=1;entryDx=0;entryDy=0;" parent="1" source="OWpKUqLsW3lBwRPTN_-N-26" target="OWpKUqLsW3lBwRPTN_-N-23" edge="1">
          <mxGeometry width="50" height="50" relative="1" as="geometry">
            <mxPoint x="2080" y="110" as="sourcePoint" />
            <mxPoint x="2130" y="60" as="targetPoint" />
            <Array as="points">
              <mxPoint x="2050" y="84" />
              <mxPoint x="2050" y="800" />
              <mxPoint x="1467" y="800" />
            </Array>
          </mxGeometry>
        </mxCell>
        <mxCell id="OWpKUqLsW3lBwRPTN_-N-81" value="&lt;font style=&quot;font-size: 14px;&quot;&gt;No&lt;/font&gt;" style="edgeLabel;html=1;align=center;verticalAlign=middle;resizable=0;points=[];" parent="OWpKUqLsW3lBwRPTN_-N-80" vertex="1" connectable="0">
          <mxGeometry x="-0.9726" relative="1" as="geometry">
            <mxPoint as="offset" />
          </mxGeometry>
        </mxCell>
        <mxCell id="OWpKUqLsW3lBwRPTN_-N-82" value="&lt;span style=&quot;font-size: 14px;&quot;&gt;Enters Amendment Terms in System&lt;/span&gt;" style="strokeWidth=2;html=1;shape=mxgraph.flowchart.terminator;whiteSpace=wrap;" parent="1" vertex="1">
          <mxGeometry x="1888" y="221" width="140" height="70" as="geometry" />
        </mxCell>
        <mxCell id="OWpKUqLsW3lBwRPTN_-N-84" value="" style="endArrow=classic;html=1;rounded=0;entryX=0.5;entryY=0;entryDx=0;entryDy=0;exitX=1;exitY=0.5;exitDx=0;exitDy=0;exitPerimeter=0;" parent="1" source="OWpKUqLsW3lBwRPTN_-N-37" target="OWpKUqLsW3lBwRPTN_-N-18" edge="1">
          <mxGeometry width="50" height="50" relative="1" as="geometry">
            <mxPoint x="1000" y="570" as="sourcePoint" />
            <mxPoint x="1050" y="520" as="targetPoint" />
            <Array as="points">
              <mxPoint x="1080" y="395" />
            </Array>
          </mxGeometry>
        </mxCell>
        <mxCell id="OWpKUqLsW3lBwRPTN_-N-87" value="&lt;font style=&quot;font-size: 15px;&quot;&gt;No&lt;/font&gt;" style="edgeLabel;html=1;align=center;verticalAlign=middle;resizable=0;points=[];" parent="OWpKUqLsW3lBwRPTN_-N-84" vertex="1" connectable="0">
          <mxGeometry x="-0.7855" y="2" relative="1" as="geometry">
            <mxPoint x="-4" as="offset" />
          </mxGeometry>
        </mxCell>
        <mxCell id="OWpKUqLsW3lBwRPTN_-N-90" value="" style="endArrow=classic;html=1;rounded=0;exitX=0.5;exitY=1;exitDx=0;exitDy=0;exitPerimeter=0;entryX=0.5;entryY=1;entryDx=0;entryDy=0;" parent="1" source="OWpKUqLsW3lBwRPTN_-N-16" target="OWpKUqLsW3lBwRPTN_-N-18" edge="1">
          <mxGeometry width="50" height="50" relative="1" as="geometry">
            <mxPoint x="730" y="760" as="sourcePoint" />
            <mxPoint x="780" y="710" as="targetPoint" />
            <Array as="points">
              <mxPoint x="695" y="640" />
              <mxPoint x="1080" y="640" />
            </Array>
          </mxGeometry>
        </mxCell>
        <mxCell id="OWpKUqLsW3lBwRPTN_-N-92" value="&lt;font style=&quot;font-size: 15px;&quot;&gt;Yes&lt;/font&gt;" style="edgeLabel;html=1;align=center;verticalAlign=middle;resizable=0;points=[];" parent="OWpKUqLsW3lBwRPTN_-N-90" vertex="1" connectable="0">
          <mxGeometry x="-0.927" y="2" relative="1" as="geometry">
            <mxPoint y="-1" as="offset" />
          </mxGeometry>
        </mxCell>
        <mxCell id="OWpKUqLsW3lBwRPTN_-N-94" value="" style="endArrow=classic;html=1;rounded=0;exitX=0.5;exitY=1;exitDx=0;exitDy=0;exitPerimeter=0;entryX=0.268;entryY=-0.011;entryDx=0;entryDy=0;entryPerimeter=0;jumpStyle=arc;" parent="1" source="OWpKUqLsW3lBwRPTN_-N-12" target="OWpKUqLsW3lBwRPTN_-N-18" edge="1">
          <mxGeometry width="50" height="50" relative="1" as="geometry">
            <mxPoint x="390" y="590" as="sourcePoint" />
            <mxPoint x="440" y="540" as="targetPoint" />
            <Array as="points">
              <mxPoint x="385" y="480" />
              <mxPoint x="1050" y="480" />
            </Array>
          </mxGeometry>
        </mxCell>
        <mxCell id="OWpKUqLsW3lBwRPTN_-N-97" value="&lt;font style=&quot;font-size: 18px;&quot;&gt;Customer&lt;/font&gt;" style="rounded=0;whiteSpace=wrap;html=1;fillColor=light-dark(#ffffff, #392f3f);strokeColor=light-dark(#000000, #5c79a3);" parent="1" vertex="1">
          <mxGeometry x="-117" y="10" width="120" height="160" as="geometry" />
        </mxCell>
        <mxCell id="OWpKUqLsW3lBwRPTN_-N-98" value="&lt;font style=&quot;font-size: 18px;&quot;&gt;Loan&lt;/font&gt;&lt;div&gt;&lt;font style=&quot;font-size: 18px;&quot;&gt;Analyst&lt;/font&gt;&lt;/div&gt;" style="rounded=0;whiteSpace=wrap;html=1;fillColor=light-dark(#ffffff, #392f3f);strokeColor=light-dark(#000000, #5c79a3);" parent="1" vertex="1">
          <mxGeometry x="-117" y="170" width="120" height="160" as="geometry" />
        </mxCell>
        <mxCell id="OWpKUqLsW3lBwRPTN_-N-99" value="&lt;font style=&quot;font-size: 18px;&quot;&gt;Credit&lt;/font&gt;&lt;div&gt;&lt;font style=&quot;font-size: 18px;&quot;&gt;Officer&lt;/font&gt;&lt;/div&gt;" style="rounded=0;whiteSpace=wrap;html=1;fillColor=light-dark(#ffffff, #392f3f);strokeColor=light-dark(#000000, #5c79a3);" parent="1" vertex="1">
          <mxGeometry x="-117" y="330" width="120" height="160" as="geometry" />
        </mxCell>
        <mxCell id="OWpKUqLsW3lBwRPTN_-N-100" value="&lt;font style=&quot;font-size: 18px;&quot;&gt;Management&lt;/font&gt;" style="rounded=0;whiteSpace=wrap;html=1;fillColor=light-dark(#ffffff, #392f3f);strokeColor=light-dark(#000000, #5c79a3);" parent="1" vertex="1">
          <mxGeometry x="-117" y="490" width="120" height="160" as="geometry" />
        </mxCell>
        <mxCell id="OWpKUqLsW3lBwRPTN_-N-101" value="&lt;font style=&quot;font-size: 18px;&quot;&gt;Legal&lt;/font&gt;" style="rounded=0;whiteSpace=wrap;html=1;fillColor=light-dark(#ffffff, #392f3f);strokeColor=light-dark(#000000, #5c79a3);" parent="1" vertex="1">
          <mxGeometry x="-117" y="650" width="120" height="160" as="geometry" />
        </mxCell>
        <mxCell id="rYMgPqw9z5oWbUVc-z0b-1" value="&lt;span style=&quot;font-size: 14px;&quot;&gt;Foreclose?&lt;/span&gt;" style="strokeWidth=2;html=1;shape=mxgraph.flowchart.decision;whiteSpace=wrap;" parent="1" vertex="1">
          <mxGeometry x="1905" y="685" width="115" height="80" as="geometry" />
        </mxCell>
        <mxCell id="rYMgPqw9z5oWbUVc-z0b-7" value="" style="endArrow=classic;html=1;rounded=0;exitX=1;exitY=0.5;exitDx=0;exitDy=0;entryX=0;entryY=0.5;entryDx=0;entryDy=0;entryPerimeter=0;" parent="1" source="OWpKUqLsW3lBwRPTN_-N-24" target="rYMgPqw9z5oWbUVc-z0b-1" edge="1">
          <mxGeometry width="50" height="50" relative="1" as="geometry">
            <mxPoint x="1890" y="870" as="sourcePoint" />
            <mxPoint x="1940" y="820" as="targetPoint" />
          </mxGeometry>
        </mxCell>
        <mxCell id="rYMgPqw9z5oWbUVc-z0b-10" value="" style="endArrow=none;html=1;rounded=0;strokeWidth=5;" parent="1" edge="1">
          <mxGeometry width="50" height="50" relative="1" as="geometry">
            <mxPoint x="1910" y="620" as="sourcePoint" />
            <mxPoint x="2010" y="620" as="targetPoint" />
          </mxGeometry>
        </mxCell>
        <mxCell id="rYMgPqw9z5oWbUVc-z0b-11" value="" style="endArrow=classic;html=1;rounded=0;exitX=0.502;exitY=-0.012;exitDx=0;exitDy=0;exitPerimeter=0;" parent="1" source="rYMgPqw9z5oWbUVc-z0b-1" edge="1">
          <mxGeometry width="50" height="50" relative="1" as="geometry">
            <mxPoint x="1963.75" y="685" as="sourcePoint" />
            <mxPoint x="1963" y="620" as="targetPoint" />
          </mxGeometry>
        </mxCell>
        <mxCell id="rYMgPqw9z5oWbUVc-z0b-12" value="&lt;font style=&quot;font-size: 15px;&quot;&gt;Yes&lt;/font&gt;" style="edgeLabel;html=1;align=center;verticalAlign=middle;resizable=0;points=[];" parent="rYMgPqw9z5oWbUVc-z0b-11" vertex="1" connectable="0">
          <mxGeometry x="-0.1869" y="1" relative="1" as="geometry">
            <mxPoint as="offset" />
          </mxGeometry>
        </mxCell>
        <mxCell id="rYMgPqw9z5oWbUVc-z0b-13" value="&lt;span style=&quot;font-size: 14px;&quot;&gt;Receives&lt;/span&gt;&lt;div&gt;&lt;span style=&quot;font-size: 14px;&quot;&gt;Foreclosure&lt;br&gt;Notice&lt;/span&gt;&lt;/div&gt;" style="strokeWidth=2;html=1;shape=mxgraph.flowchart.terminator;whiteSpace=wrap;" parent="1" vertex="1">
          <mxGeometry x="1560" y="49" width="140" height="70" as="geometry" />
        </mxCell>
        <mxCell id="rYMgPqw9z5oWbUVc-z0b-14" value="&lt;span style=&quot;font-size: 14px;&quot;&gt;Foreclosure Entered in System&lt;/span&gt;" style="strokeWidth=2;html=1;shape=mxgraph.flowchart.terminator;whiteSpace=wrap;" parent="1" vertex="1">
          <mxGeometry x="1564" y="221" width="140" height="70" as="geometry" />
        </mxCell>
        <mxCell id="rYMgPqw9z5oWbUVc-z0b-15" value="" style="endArrow=classic;html=1;rounded=0;entryX=0.5;entryY=1;entryDx=0;entryDy=0;entryPerimeter=0;" parent="1" target="rYMgPqw9z5oWbUVc-z0b-14" edge="1">
          <mxGeometry width="50" height="50" relative="1" as="geometry">
            <mxPoint x="1910" y="620" as="sourcePoint" />
            <mxPoint x="1930" y="540" as="targetPoint" />
            <Array as="points">
              <mxPoint x="1910" y="480" />
              <mxPoint x="1634" y="480" />
            </Array>
          </mxGeometry>
        </mxCell>
        <mxCell id="rYMgPqw9z5oWbUVc-z0b-16" value="" style="endArrow=classic;html=1;rounded=0;entryX=0.5;entryY=1;entryDx=0;entryDy=0;entryPerimeter=0;" parent="1" target="rYMgPqw9z5oWbUVc-z0b-13" edge="1">
          <mxGeometry width="50" height="50" relative="1" as="geometry">
            <mxPoint x="2010" y="620" as="sourcePoint" />
            <mxPoint x="2020" y="530" as="targetPoint" />
            <Array as="points">
              <mxPoint x="2010" y="440" />
              <mxPoint x="1730" y="440" />
              <mxPoint x="1730" y="150" />
              <mxPoint x="1630" y="150" />
            </Array>
          </mxGeometry>
        </mxCell>
      </root>
    </mxGraphModel>
  </diagram>
</mxfile>
